<svg width="0" height="0">

<symbol viewBox="0 0 184 184" fill="none" xmlns="http://www.w3.org/2000/svg">
<!--Clover-->
<path d="M92 12C80.568 12 69.9033 6.62805 59.1725 2.68596C54.4428 0.948493 49.3322 0 44 0C19.6995 0 0 19.6995 0 44C0 49.3322 0.948493 54.4428 2.68596 59.1725C6.62806 69.9033 12 80.568 12 92C12 103.432 6.62806 114.097 2.68596 124.828C0.948493 129.557 0 134.668 0 140C0 164.301 19.6995 184 44 184C49.3322 184 54.4428 183.052 59.1724 181.314C69.9033 177.372 80.568 172 92 172C103.432 172 114.097 177.372 124.828 181.314C129.557 183.052 134.668 184 140 184C164.301 184 184 164.301 184 140C184 134.668 183.052 129.557 181.314 124.828C177.372 114.097 172 103.432 172 92C172 80.568 177.372 69.9033 181.314 59.1724C183.052 54.4428 184 49.3322 184 44C184 19.6995 164.301 0 140 0C134.668 0 129.557 0.948493 124.828 2.68596C114.097 6.62806 103.432 12 92 12Z" fill="#FFC9BF"/>
<path d="M49.5511 169.059C74.3326 188.98 109.667 188.98 134.449 169.059C140.75 163.993 146.841 158.536 152.689 152.689C158.536 146.841 163.993 140.75 169.059 134.449C188.98 109.667 188.98 74.3326 169.059 49.5511C163.993 43.2499 158.536 37.1591 152.689 31.3113C146.841 25.4636 140.75 20.0069 134.449 14.9413C109.667 -4.98045 74.3326 -4.98044 49.5511 14.9413C43.2499 20.0069 37.1591 25.4636 31.3113 31.3113C25.4636 37.1591 20.0069 43.2499 14.9413 49.5511C-4.98045 74.3326 -4.98044 109.667 14.9413 134.449C20.0069 140.75 25.4636 146.841 31.3113 152.689C37.1591 158.536 43.2499 163.993 49.5511 169.059Z" fill="#FFDEAB"/>
</symbol>
</defs>
</svg> 
